<svg xmlns="http://www.w3.org/2000/svg" xml:space="preserve" width="100" height="100" viewBox="0 0 26.46 26.46"><path fill="#fff" d="M13.23.26a12.97 12.97 0 1 0 .02 25.95A12.97 12.97 0 0 0 13.23.26zm0 1.15c.25 0 .58.18.97.73.27.4.55.95.8 1.63a17.79 17.79 0 0 0-3.54 0c.25-.68.53-1.24.8-1.63.39-.55.72-.73.97-.73zm-2.1.37c-.36.59-.67 1.32-.94 2.16-.96.17-1.88.42-2.75.74a8.19 8.19 0 0 1 3.69-2.9zm4.2 0a8.2 8.2 0 0 1 3.69 2.9 16.1 16.1 0 0 0-2.75-.74c-.27-.84-.58-1.57-.94-2.16zm3.7 1.15a11.86 11.86 0 0 1 4.5 4.49 11.23 11.23 0 0 0-2.6-1.89 12.83 12.83 0 0 0-1.9-2.6zm-11.62 0a11.21 11.21 0 0 0-1.88 2.6 12.83 12.83 0 0 0-2.6 1.88 11.85 11.85 0 0 1 4.48-4.48zm5.82 1.9c.73 0 1.45.04 2.15.14.32 1.16.58 2.55.74 4.1a41.45 41.45 0 0 0-5.79 0c.17-1.55.42-2.94.74-4.1.7-.1 1.42-.14 2.16-.14zm-3.4.35a29.36 29.36 0 0 0-.66 3.99c-1.46.14-2.8.37-3.99.66.27-1.25.68-2.41 1.2-3.45 1.04-.52 2.2-.93 3.46-1.2zm6.8 0c1.24.27 2.4.68 3.44 1.2.53 1.04.94 2.2 1.2 3.45a27.73 27.73 0 0 0-3.98-.66 29.29 29.29 0 0 0-.67-3.99zM4.67 7.44c-.32.86-.57 1.78-.74 2.74-.84.27-1.57.59-2.15.95.5-1.4 1.5-2.66 2.89-3.7zm17.1 0a8.2 8.2 0 0 1 2.9 3.68c-.6-.35-1.32-.66-2.17-.94-.17-.96-.41-1.88-.73-2.74zm-8.55 2.67c1.03 0 2.04.04 3 .11a39.84 39.84 0 0 1 0 6.01 40.12 40.12 0 0 1-6 0 40.08 40.08 0 0 1 0-6c.96-.08 1.96-.12 3-.12zm-4.16.22a41.47 41.47 0 0 0 0 5.8 26.32 26.32 0 0 1-4.1-.75 16.48 16.48 0 0 1 0-4.3 26.4 26.4 0 0 1 4.1-.75zm8.32 0c1.54.17 2.94.43 4.1.75a16.48 16.48 0 0 1 0 4.3c-1.16.32-2.56.58-4.1.74a41.48 41.48 0 0 0 0-5.79zM3.77 11.46a17.86 17.86 0 0 0 0 3.54 7.36 7.36 0 0 1-1.63-.8c-.54-.39-.73-.72-.73-.97s.19-.59.73-.97c.4-.28.95-.55 1.63-.8zm18.92 0a7.3 7.3 0 0 1 1.63.8c.54.38.73.72.73.97s-.19.58-.73.96c-.4.28-.95.56-1.63.8a17.8 17.8 0 0 0 0-3.53zm-20.9 3.87c.58.36 1.3.67 2.15.94.17.96.42 1.88.74 2.75a8.17 8.17 0 0 1-2.9-3.7zm22.88 0A8.19 8.19 0 0 1 21.78 19c.32-.86.57-1.78.73-2.74a9.71 9.71 0 0 0 2.16-.94zm-3.4 1.3a14.22 14.22 0 0 1-1.2 3.44c-1.03.52-2.2.94-3.45 1.2.3-1.17.52-2.52.67-3.98 1.46-.15 2.8-.38 3.99-.67zm-16.09 0c1.18.28 2.53.5 3.99.66.15 1.46.37 2.8.66 3.98a14.21 14.21 0 0 1-3.44-1.2c-.53-1.03-.94-2.2-1.2-3.45zm5.15.76a41.46 41.46 0 0 0 5.8 0 26.41 26.41 0 0 1-.75 4.1 16.47 16.47 0 0 1-4.3 0 26.32 26.32 0 0 1-.75-4.1zm13.2 1.65a11.86 11.86 0 0 1-4.48 4.48 11.21 11.21 0 0 0 1.87-2.6 12.78 12.78 0 0 0 2.6-1.88zm-20.59.01a11.2 11.2 0 0 0 2.6 1.87 12.8 12.8 0 0 0 1.87 2.6 11.82 11.82 0 0 1-4.47-4.47zm16.08 2.73a8.18 8.18 0 0 1-3.69 2.9c.36-.6.67-1.32.94-2.17.96-.17 1.88-.41 2.75-.73zm-11.58 0c.87.32 1.79.57 2.75.73.27.85.58 1.58.94 2.16a8.17 8.17 0 0 1-3.69-2.89zm7.56.9a7.31 7.31 0 0 1-.8 1.63c-.39.55-.72.74-.97.74s-.58-.19-.97-.74a7.38 7.38 0 0 1-.8-1.62 17.85 17.85 0 0 0 3.54 0z" color="#000"/></svg>