<?xml version="1.0" encoding="UTF-8" standalone="no"?>
<!-- Created with Inkscape (http://www.inkscape.org/) -->

<svg
   width="64"
   height="64"
   viewBox="0 0 16.933333 16.933333"
   version="1.1"
   id="svg5"
   inkscape:version="1.3 (0e150ed6c4, 2023-07-21)"
   sodipodi:docname="ico.svg"
   xmlns:inkscape="http://www.inkscape.org/namespaces/inkscape"
   xmlns:sodipodi="http://sodipodi.sourceforge.net/DTD/sodipodi-0.dtd"
   xmlns:xlink="http://www.w3.org/1999/xlink"
   xmlns="http://www.w3.org/2000/svg"
   xmlns:svg="http://www.w3.org/2000/svg">
  <sodipodi:namedview
     id="namedview7"
     pagecolor="#505050"
     bordercolor="#eeeeee"
     borderopacity="1"
     inkscape:showpageshadow="0"
     inkscape:pageopacity="0"
     inkscape:pagecheckerboard="0"
     inkscape:deskcolor="#505050"
     inkscape:document-units="px"
     showgrid="false"
     inkscape:zoom="2.8284271"
     inkscape:cx="17.147339"
     inkscape:cy="40.65864"
     inkscape:window-width="1366"
     inkscape:window-height="705"
     inkscape:window-x="-8"
     inkscape:window-y="-8"
     inkscape:window-maximized="1"
     inkscape:current-layer="layer1" />
  <defs
     id="defs2">
    <linearGradient
       id="linearGradient22"
       inkscape:collect="always">
      <stop
         style="stop-color:#ffffff;stop-opacity:1;"
         offset="0"
         id="stop18" />
      <stop
         style="stop-color:#afaf91;stop-opacity:1;"
         offset="0.11143526"
         id="stop19" />
      <stop
         style="stop-color:#afaf91;stop-opacity:1;"
         offset="0.87328631"
         id="stop21" />
      <stop
         style="stop-color:#ffffff;stop-opacity:1;"
         offset="1"
         id="stop22" />
    </linearGradient>
    <linearGradient
       inkscape:collect="always"
       xlink:href="#linearGradient22"
       id="linearGradient18"
       x1="22.520483"
       y1="1.9939375"
       x2="22.520483"
       y2="14.939396"
       gradientUnits="userSpaceOnUse"
       gradientTransform="matrix(1.3080518,0,0,1.3080518,-20.991292,-2.6081736)" />
    <linearGradient
       inkscape:collect="always"
       xlink:href="#linearGradient22"
       id="linearGradient1"
       gradientUnits="userSpaceOnUse"
       gradientTransform="translate(12.964944,0.38731245)"
       x1="22.520483"
       y1="1.9939375"
       x2="22.520483"
       y2="14.939396" />
  </defs>
  <g
     inkscape:label="Calque 1"
     inkscape:groupmode="layer"
     id="layer1">
    <rect
       style="fill:#ff0202;fill-opacity:0.284768;stroke:#ffffff;stroke-width:0;stroke-linecap:round;stroke-miterlimit:100;stroke-dasharray:none"
       id="rect7"
       width="20.038881"
       height="12.945472"
       x="-20.967813"
       y="3.1477003" />
    <rect
       style="fill:#ff0202;fill-opacity:0.284768;stroke:#ffffff;stroke-width:0;stroke-linecap:round;stroke-miterlimit:100;stroke-dasharray:none"
       id="rect6"
       width="8.4234238"
       height="12.945472"
       x="-15.160086"
       y="3.1477003" />
    <circle
       style="fill:#ff0202;fill-opacity:0.284768;stroke:#ffffff;stroke-width:0;stroke-linecap:round;stroke-miterlimit:100;stroke-dasharray:none"
       id="path7"
       cx="-16.800438"
       cy="4.7880507"
       r="1.6403508" />
    <circle
       style="fill:#ff0202;fill-opacity:0.284768;stroke:#ffffff;stroke-width:0;stroke-linecap:round;stroke-miterlimit:100;stroke-dasharray:none"
       id="circle7"
       cx="-5.0963097"
       cy="14.452821"
       r="1.6403508" />
    <circle
       style="fill:#ff0202;fill-opacity:0.284768;stroke:#ffffff;stroke-width:0;stroke-linecap:round;stroke-miterlimit:100;stroke-dasharray:none"
       id="circle7-8-1"
       cx="-8.3770132"
       cy="4.7880507"
       r="1.6403508" />
    <circle
       style="fill:#ff0202;fill-opacity:0.284768;stroke:#ffffff;stroke-width:0;stroke-linecap:round;stroke-miterlimit:100;stroke-dasharray:none"
       id="circle7-8-4"
       cx="-13.519734"
       cy="14.452821"
       r="1.6403508" />
    <rect
       style="fill:#ff0202;stroke:#ffffff;stroke-width:0;stroke-linecap:round;stroke-miterlimit:100;stroke-dasharray:none;fill-opacity:0.28476822"
       id="rect6-3"
       width="8.4234238"
       height="12.945472"
       x="-20.121437"
       y="-15.345833" />
    <circle
       style="fill:#ff0202;stroke:#ffffff;stroke-width:0;stroke-linecap:round;stroke-miterlimit:100;stroke-dasharray:none;fill-opacity:0.28476822"
       id="path7-8"
       cx="-22.290955"
       cy="-13.705482"
       r="1.6403508" />
    <circle
       style="fill:#ff0202;stroke:#ffffff;stroke-width:0;stroke-linecap:round;stroke-miterlimit:100;stroke-dasharray:none;fill-opacity:0.28476822"
       id="circle7-8"
       cx="-9.5284958"
       cy="-4.0407119"
       r="1.6403508" />
    <rect
       style="fill:#ff0202;stroke:#ffffff;stroke-width:0;stroke-linecap:round;stroke-miterlimit:100;stroke-dasharray:none;fill-opacity:0.28476822"
       id="rect7-4"
       width="20.038881"
       height="12.945472"
       x="-25.929167"
       y="-15.345833" />
    <rect
       style="fill:#ff0202;fill-opacity:0.284768;stroke:#ffffff;stroke-width:0;stroke-linecap:round;stroke-miterlimit:100;stroke-dasharray:none"
       id="rect7-6"
       width="20.038881"
       height="12.945472"
       x="17.991667"
       y="-16.933332" />
    <rect
       style="fill:#ff0202;fill-opacity:0.284768;stroke:#ffffff;stroke-width:0;stroke-linecap:round;stroke-miterlimit:100;stroke-dasharray:none"
       id="rect6-5"
       width="8.4234238"
       height="12.945472"
       x="23.799395"
       y="-16.933332" />
    <circle
       style="fill:#ff0202;fill-opacity:0.284768;stroke:#ffffff;stroke-width:0;stroke-linecap:round;stroke-miterlimit:100;stroke-dasharray:none"
       id="path7-1"
       cx="22.159044"
       cy="-15.292982"
       r="1.6403508" />
    <circle
       style="fill:#ff0202;fill-opacity:0.284768;stroke:#ffffff;stroke-width:0;stroke-linecap:round;stroke-miterlimit:100;stroke-dasharray:none"
       id="circle7-82"
       cx="33.863171"
       cy="-5.6282115"
       r="1.6403508" />
    <circle
       style="fill:#ff0202;fill-opacity:0.284768;stroke:#ffffff;stroke-width:0;stroke-linecap:round;stroke-miterlimit:100;stroke-dasharray:none"
       id="circle7-8-1-3"
       cx="30.582468"
       cy="-15.292982"
       r="1.6403508" />
    <circle
       style="fill:#ff0202;fill-opacity:0.284768;stroke:#ffffff;stroke-width:0;stroke-linecap:round;stroke-miterlimit:100;stroke-dasharray:none"
       id="circle7-8-4-1"
       cx="25.439747"
       cy="-5.6282115"
       r="1.6403508" />
    <path
       d="M 0.81182393,5.6037308e-7 C 0.89200751,2.0050344e-5 0.97211515,0.00453949 1.0517873,0.01351927 c 0.079766,0.0088424 0.158982,0.02216102 0.2372596,0.03988119 0.078248,0.01796348 0.1554319,0.04030631 0.2311773,0.06691993 0.075788,0.0264592 0.1500374,0.0571502 0.2223884,0.0919299 0.072414,0.0347758 0.1428314,0.0735924 0.2108985,0.11626356 0.067888,0.0427144 0.1333389,0.089204 0.196026,0.1392467 0.062656,0.050012 0.1224598,0.10349698 0.1791284,0.16020115 0.056952,0.0568688 0.1106617,0.11689928 0.1608774,0.17980389 0.050046,0.062687 0.096534,0.12813413 0.139246,0.19602691 0.042668,0.068067 0.081492,0.138478 0.1162597,0.2108977 0.034782,0.072352 0.065468,0.1465986 0.09193,0.222389 0.026618,0.075745 0.04896,0.1529271 0.06692,0.2311764 0.017724,0.078277 0.03104,0.1574903 0.039882,0.2372602 0.00902,0.079673 0.0135,0.1597867 0.013512,0.2399638 V 14.78718 c -8.5e-5,0.225163 0.035278,0.44894 0.1047744,0.66311 0.069602,0.214168 0.1724745,0.416048 0.3048559,0.59822 0.1324558,0.182375 0.2928217,0.342741 0.4751955,0.475197 0.1822168,0.132142 0.3840938,0.234791 0.5982205,0.304179 0.2139162,0.06966 0.4374609,0.105243 0.6624353,0.105447 h 8.8725778 2.146155 c -0.225199,-1.33e-4 -0.448978,-0.03573 -0.66311,-0.105447 -0.214127,-0.06939 -0.416003,-0.172036 -0.59822,-0.304179 -0.182135,-0.132511 -0.342269,-0.292874 -0.474521,-0.475197 -0.13238,-0.182172 -0.235258,-0.384051 -0.304854,-0.59822 -0.06973,-0.214132 -0.10531,-0.437911 -0.105458,-0.66311 V 2.1454801 c -1.8e-5,-0.080177 -0.0045,-0.1602919 -0.01351,-0.2399639 -0.0088,-0.07977 -0.02216,-0.158982 -0.03989,-0.23726 -0.01795,-0.078249 -0.04031,-0.1554308 -0.06692,-0.2311764 -0.02647,-0.075792 -0.05715,-0.1500379 -0.09194,-0.2223891 -0.03479,-0.072421 -0.0736,-0.1428309 -0.11626,-0.2108977 -0.04272,-0.0678932 -0.0892,-0.13333918 -0.139247,-0.19602691 -0.05,-0.0628859 -0.103486,-0.12291632 -0.160201,-0.17980375 C 13.290505,0.57123872 13.230482,0.51775239 13.167592,0.46776119 13.10491,0.41771774 13.039455,0.37122958 12.971565,0.32851436 12.903494,0.28584179 12.833088,0.24702667 12.760668,0.2122508 12.688542,0.17749456 12.614515,0.14680373 12.538954,0.12032091 12.463205,0.0937073 12.386027,0.07136578 12.307778,0.05340099 12.229504,0.03568081 12.150287,0.02236615 12.070518,0.01351979 11.990622,0.00450733 11.910281,-5.4566651e-6 11.829877,1.0835938e-6 H 2.9572944 Z"
       style="opacity:1;fill:url(#linearGradient18);stroke:#ffffff;stroke-width:0;stroke-linecap:round;stroke-miterlimit:100"
       id="path16" />
    <path
       style="opacity:1;fill:#000000;fill-opacity:1;stroke:#ffffff;stroke-width:0;stroke-linecap:round;stroke-miterlimit:100;stroke-dasharray:none"
       id="path23"
       d="m 4.8034952,4.6629765 c 0.015294,-0.01278 0.030383,-0.025818 0.045886,-0.038347 0.061151,-0.049417 0.2625975,-0.1729436 0.1955404,-0.131897 -0.1359876,0.08324 -0.285112,0.1478645 -0.4084909,0.2488553 -0.034657,0.02837 0.087736,-0.026174 0.1324006,-0.022862 0.038994,0.0029 0.073308,0.027224 0.1099623,0.040834 0.1000456,0.059703 0.1267476,0.2066452 0.2527586,0.2265068 0.086804,0.013681 0.1704617,-0.037255 0.2400477,-0.07698 C 5.5971614,4.7803154 5.8204593,4.6476198 6.0448888,4.5168862 5.2931163,4.9559675 5.5166377,4.7507826 5.7955635,4.8176265 c 0.074783,0.01792 0.1453363,0.051371 0.2203254,0.068412 0.046154,0.010496 0.093629,0.013922 0.1404429,0.020886 0.2889009,0.020831 0.525337,-0.1005341 0.8174823,-0.071504 0.3167085,0.048696 0.6368944,0.071047 0.9562333,0.095208 0.1064553,0.00529 0.1977091,0.046765 0.2911159,0.09272 0.026479,0.013028 0.050756,0.032137 0.079435,0.039099 0.1133688,0.027524 0.1929621,0.00673 0.3089207,-0.00609 0.1528024,-0.018813 0.3077547,-0.035517 0.4576725,0.010893 0.095506,0.029567 0.1811159,0.09057 0.2671886,0.1395911 0.044534,-0.003 0.090604,0.00295 0.1336012,-0.00903 0.059017,-0.016447 0.1128187,-0.047972 0.1678219,-0.074959 0.1593393,-0.078176 0.3088745,-0.1833865 0.4841748,-0.2248621 0.03796,-0.00899 0.07754,-0.0086 0.116315,-0.01291 0.03219,0.00405 0.06505,0.00441 0.09656,0.012138 0.08302,0.020379 0.146681,0.079237 0.231364,0.097653 0.104574,0.022742 0.127169,0.00753 0.239094,-0.00926 0.188775,-0.05735 0.367065,-0.1423252 0.549993,-0.2149641 0.09895,-0.039293 0.16024,-0.067865 0.264209,-0.077501 0.03023,-0.0028 0.0607,0.00221 0.09103,0.00332 0.140395,0.042423 0.261172,0.1221144 0.407248,0.1478488 0.08359,0.00691 0.04205,0.00474 0.124631,0.00665 0,0 0.546377,-0.3968877 0.546377,-0.3968877 v 0 c -0.08008,0.00177 -0.03992,0.00152 -0.120459,6.922e-4 -0.04034,-0.00295 -0.08495,-0.00401 -0.12416,-0.015688 -0.102862,-0.03063 -0.188585,-0.1027761 -0.293099,-0.1293806 -0.0355,-0.00367 -0.07082,-0.012034 -0.106489,-0.011017 -0.124618,0.00357 -0.168877,0.028461 -0.287559,0.076133 -0.176449,0.07087 -0.34856,0.152709 -0.528361,0.2152485 -0.0982,0.023403 -0.189669,0.048281 -0.288338,0.00935 -0.126854,-0.050038 -0.02351,-0.039 -0.162797,-0.08315 -0.03575,-0.011323 -0.07357,-0.014549 -0.110355,-0.021825 -0.04415,0.00221 -0.08894,-0.00118 -0.132455,0.00669 C 10.360876,4.5502737 10.148647,4.749426 9.8931916,4.8409879 9.797043,4.7939863 9.7057875,4.7303739 9.6041901,4.6954116 9.4478723,4.641619 9.2891112,4.6509468 9.1274558,4.670604 9.0941102,4.6749024 8.9089602,4.7038008 8.8577163,4.6947263 8.8285998,4.6895731 8.8040989,4.6697768 8.777479,4.656904 8.6745976,4.607157 8.5766304,4.5547829 8.4586898,4.5514942 8.1424936,4.5364842 7.8249804,4.517823 7.5144933,4.4521559 7.4078289,4.43798 7.3840308,4.4289541 7.2710502,4.4407211 7.0762442,4.4610122 6.8893577,4.5427252 6.6907612,4.5291495 6.6479247,4.5244184 6.6044343,4.5237818 6.5622519,4.5149495 6.4475034,4.490924 6.3412612,4.4305821 6.2253543,4.409243 5.9124102,4.3516285 5.7793774,4.5732253 5.4332878,4.7530101 5.5825846,4.6675825 5.7303457,4.5794137 5.8811782,4.4967272 6.0767019,4.3895408 5.7110693,4.6078228 5.6839965,4.6131401 5.5922481,4.6311609 5.5785571,4.5625779 5.5272034,4.5046547 5.4943561,4.4676046 5.4588685,4.4329814 5.4247013,4.397145 5.3806059,4.3744728 5.3409679,4.3391798 5.2924148,4.3291283 5.2432857,4.3189568 5.1876617,4.3174304 5.1422044,4.3386629 4.8175403,4.4902953 4.4537989,4.6814597 4.1715649,4.9247479 Z" />
    <path
       style="opacity:1;fill:#000000;fill-opacity:1;stroke:#ffffff;stroke-width:0;stroke-linecap:round;stroke-miterlimit:100;stroke-dasharray:none"
       id="path24"
       d="M 4.9930238,7.0489341 C 4.8326844,7.1441817 4.6637592,7.226271 4.5120062,7.3346767 c -0.049204,0.035149 0.1125851,-0.044311 0.1699241,-0.063512 0.1621681,-0.054302 0.3496575,-0.12035 0.5241536,-0.090237 0.040662,0.00703 0.077663,0.027908 0.1164952,0.041861 0.097077,0.057548 0.1474323,0.1534944 0.2622241,0.1827435 0.1237482,0.031532 0.2616113,-0.00451 0.3833631,-0.025933 0.2543624,-0.04664 0.4219146,0.1308997 0.6243942,0.2454036 0.045656,0.00813 0.090614,0.025729 0.1369684,0.024375 0.1322745,-0.00388 0.3369354,-0.075313 0.4526047,-0.111828 C 7.2438306,7.5180708 7.6194103,7.3927065 7.686124,7.37598 7.757418,7.358104 7.8308347,7.350135 7.9031905,7.337212 8.1094904,7.296927 8.2913178,7.389159 8.4862541,7.426847 8.6091155,7.450599 8.6279105,7.439051 8.7579818,7.4276776 9.0973189,7.3490856 9.4117201,7.1664519 9.7630627,7.1361243 c 0.041289,-0.00357 0.082878,8.998e-4 0.1243172,0.00135 0.098224,0.00952 0.1934361,0.044933 0.2933521,0.030495 0.103137,-0.014906 0.226021,-0.071745 0.330814,-0.1000479 0.192531,-0.046926 0.32885,0.086498 0.497777,0.1421718 0.03553,0.01172 0.07296,0.01672 0.109448,0.025078 0.202589,0.030989 0.385014,-0.083122 0.58393,-0.089009 0.101117,0.017522 0.171547,0.099742 0.240261,0.1695101 0.05363,0.054278 0.120158,0.082934 0.191264,0.1059192 0,0 0.558712,-0.3835923 0.558712,-0.3835923 v 0 c -0.06336,-0.013816 -0.123466,-0.031092 -0.172643,-0.076191 -0.08187,-0.080281 -0.159432,-0.1725817 -0.271635,-0.2100635 -0.206092,-0.015412 -0.381754,0.106062 -0.586813,0.1037498 -0.0332,-0.00444 -0.06727,-0.00452 -0.0996,-0.013356 -0.179927,-0.049169 -0.32457,-0.2070705 -0.52667,-0.1731919 -0.03998,0.00748 -0.08084,0.01121 -0.119922,0.022454 -0.13023,0.037452 -0.07515,0.043871 -0.199407,0.080084 -0.101683,0.029636 -0.196272,-0.00219 -0.297516,-0.018024 -0.04625,-0.00177 -0.09256,-0.00827 -0.13875,-0.00528 -0.3497132,0.02273 -0.6646304,0.2042927 -0.998617,0.2901783 -0.1050824,0.014772 -0.1486798,0.029124 -0.2518049,0.014625 -0.2085972,-0.02933 -0.4052992,-0.1348967 -0.6237262,-0.09418 -0.07657,0.012636 -0.1542904,0.019616 -0.2297129,0.037894 -0.07067,0.017128 -0.435055,0.1402123 -0.5026938,0.1614503 -0.045256,0.01421 -0.3335945,0.103446 -0.4081036,0.1121091 -0.039364,0.00458 -0.07909,-0.00519 -0.1186351,-0.0078 C 6.9300816,7.1544531 6.7571766,6.9520652 6.4922533,6.9835106 6.380969,7.0064769 6.2504422,7.0466496 6.1353363,7.0356831 6.0137125,7.024096 5.9663835,6.9136664 5.866279,6.8577858 5.8217,6.8393081 5.7796363,6.8128797 5.7325419,6.8023522 5.5504263,6.7616414 5.3630816,6.8270628 5.1903505,6.8759333 5.1372371,6.8909603 5.0809411,6.898322 5.0316137,6.9230925 4.8024705,7.0381566 4.582357,7.1703867 4.3577288,7.2940338 Z" />
    <path
       style="opacity:1;fill:#000000;fill-opacity:1;stroke:#ffffff;stroke-width:0;stroke-linecap:round;stroke-miterlimit:100;stroke-dasharray:none"
       id="path25"
       d="M 4.583431,10.035797 C 4.9700442,9.945729 5.4055512,9.8223633 5.8054448,9.8512298 c 0.052782,0.00381 0.1046169,0.016041 0.1569251,0.024063 0.27228,0.1226428 0.5465718,0.054411 0.8244282,-0.00656 0.2578422,-0.03727 0.3566271,0.1234447 0.5351033,0.2643482 0.031114,0.01207 0.060493,0.03033 0.093346,0.03623 0.2487572,0.04465 0.8667188,-0.4122903 0.9339777,-0.4512458 0.1400891,-0.081138 -0.2820194,0.1591932 -0.4200904,0.2437199 -0.043194,0.026445 0.090138,-0.046209 0.1352065,-0.069315 0.1472352,-0.063581 0.3020607,-0.083761 0.4493553,-0.00996 0.232863,0.1166573 -0.073123,-0.00864 0.1896753,0.092777 0.040836,2.741e-4 0.0824,0.0085 0.1225082,8.306e-4 0.050391,-0.00965 0.099793,-0.027482 0.1448686,-0.051983 0.2370712,-0.1288858 0.4677292,-0.269252 0.6996847,-0.4071151 0.049146,-0.02921 0.1922838,-0.1237489 0.143448,-0.094022 -0.4604476,0.280282 -0.5609821,0.264329 -0.261533,0.2439651 0.2086586,0.023615 0.3580328,0.1814606 0.5607237,0.2229467 0.12048,0.02466 0.174835,0.01449 0.294436,0.00823 0.218788,-0.0333 0.372221,-0.083246 0.578224,0.017377 0.211339,0.1233976 0.334839,0.1193676 0.569144,0.087816 0.168148,-0.025656 0.33526,0.0056 0.503871,0.0067 0.172384,-0.0012 0.344732,-0.0051 0.517101,-0.0074 0.02197,-2.4e-4 0.04393,-4.84e-4 0.0659,-7.26e-4 0,0 0.544458,-0.3967826 0.544458,-0.3967826 v 0 c -0.02234,4.153e-4 -0.04468,7.959e-4 -0.06702,0.00121 -0.174328,0.00407 -0.34857,0.011289 -0.522934,0.013654 -0.03423,-1.711e-4 -0.144982,2.398e-4 -0.183049,-0.00339 -0.109153,-0.010394 -0.215724,-0.034581 -0.326378,-0.011798 -0.213959,0.034235 -0.346593,0.06691 -0.542017,-0.055244 -0.05676,-0.032314 -0.101298,-0.062962 -0.166121,-0.078384 -0.146921,-0.034953 -0.302526,0.013743 -0.446181,0.038418 -0.141831,0.017654 -0.286047,0.033865 -0.423772,-0.020524 C 10.361939,9.4311038 10.241601,9.3062962 10.077873,9.2851475 9.65392,9.2592669 9.9428954,9.2481367 9.2134831,9.6570425 9.1634257,9.6851035 9.01752,9.7761678 9.0686491,9.7501107 9.20908,9.6785436 9.3454179,9.5991461 9.4818739,9.5202635 9.5523706,9.4795109 9.2296564,9.666271 9.2520982,9.6031985 9.2203376,9.5942036 9.1868069,9.5900021 9.1568144,9.5762105 9.0258417,9.5159942 9.1021258,9.5099034 8.9555078,9.4633758 8.8277596,9.4228364 8.6944122,9.4413715 8.5717499,9.486671 8.2199061,9.6571765 8.3441941,9.5928476 7.7424344,9.952411 7.6009029,10.036979 8.0292806,9.7897694 8.1731456,9.7092341 c 0.038229,-0.021399 -0.073148,0.049411 -0.1137912,0.065766 -0.029516,0.011878 -0.061967,0.0172 -0.093774,0.017758 -0.027721,4.845e-4 -0.05458,-0.00979 -0.081869,-0.014692 C 7.6880933,9.6367792 7.5839047,9.4489738 7.3065807,9.4728213 7.126715,9.5160141 6.9259763,9.584455 6.7385824,9.5699427 6.6711387,9.5647203 6.5518699,9.5226588 6.4903942,9.5032203 6.4329836,9.4952326 6.3760088,9.4829395 6.3181621,9.4792537 5.9111704,9.4533178 5.5107019,9.5781195 5.1102728,9.6284474 Z" />
    <path
       style="opacity:1;fill:#000000;fill-opacity:1;stroke:#ffffff;stroke-width:0;stroke-linecap:round;stroke-miterlimit:100;stroke-dasharray:none"
       id="path26"
       d="m 4.4015444,12.901046 c 0.2452178,-0.136555 0.5134236,-0.217877 0.7916768,-0.245982 0.2251273,-0.0018 0.3430079,0.163874 0.5048206,0.28729 0.03274,0.02497 0.068383,0.04588 0.1025766,0.06882 0.1004298,0.04256 0.1383078,0.06972 0.2516878,0.07151 0.2176085,0.0034 0.4339129,-0.107566 0.6324277,-0.183302 0.2034962,-0.08467 0.4165612,-0.08694 0.6324147,-0.07569 0.3802653,0.0275 0.7493164,0.125312 1.1188466,0.212809 0.2830853,0.08727 0.5553376,-0.03492 0.8310462,-0.08798 0.04942,-0.0095 0.099692,-0.01387 0.149538,-0.02082 0.1553578,-0.03836 0.2886819,0.06328 0.4359766,0.07644 0.034853,0.0032 0.06998,-7.27e-4 0.1049717,-0.0011 0.2436053,-0.03983 0.4212513,-0.175922 0.6739403,-0.162611 0.200072,0.04771 0.318048,0.08456 0.527012,0.04638 0.146996,-0.02864 0.289835,-0.122932 0.443024,-0.09882 0.125534,0.03437 0.239428,-0.02598 0.355603,-0.06538 0.147886,-0.03502 0.298975,0.01242 0.446634,0.03064 0,0 0.545572,-0.386321 0.545572,-0.386321 v 0 c -0.152914,-0.01861 -0.304107,-0.06041 -0.458419,-0.05753 -0.110162,0.03194 -0.214179,0.09748 -0.329995,0.09561 -0.163892,-0.06363 -0.31702,0.03446 -0.47495,0.0798 -0.203041,0.05861 -0.31447,0.02355 -0.511891,-0.03091 -0.08654,-0.01122 -0.12208,-0.02222 -0.211808,-0.0058 -0.163113,0.02991 -0.306042,0.130479 -0.469359,0.160824 -0.03063,0.0036 -0.06104,0.011 -0.09189,0.01122 -0.146838,6.58e-4 -0.307345,-0.126868 -0.4642957,-0.08067 -0.199877,0.02385 -0.1262492,0.0087 -0.3315883,0.06045 -0.158246,0.03977 -0.3273883,0.09987 -0.4934543,0.09307 -0.048966,-0.0019 -0.096579,-0.01671 -0.1448696,-0.02505 -0.3714792,-0.07408 -0.7384443,-0.170161 -1.1131552,-0.227125 -0.2238048,-0.02676 -0.4462326,-0.02555 -0.6594516,0.05884 -0.068319,0.02682 -0.2444272,0.09631 -0.3111708,0.120969 -0.1778692,0.06573 -0.3463154,0.121923 -0.5278378,0.03461 -0.032587,-0.02057 -0.066689,-0.03893 -0.097767,-0.06173 -0.1766811,-0.129564 -0.300549,-0.31675 -0.5428533,-0.323789 -0.053895,0.0034 -0.1082337,0.0025 -0.1616889,0.0102 -0.2128279,0.03055 -0.4230457,0.104812 -0.6175344,0.194096 z" />
    <path
       d="m 29.633333,2.3812505 c 0.0613,1.49e-5 0.122542,0.00347 0.183451,0.010335 0.06098,0.00676 0.121541,0.016942 0.181384,0.030489 0.05982,0.013733 0.118827,0.030814 0.176734,0.05116 0.05794,0.020228 0.114703,0.043691 0.170015,0.07028 0.05536,0.026586 0.109194,0.056261 0.161231,0.088883 0.0519,0.032655 0.101937,0.068196 0.149861,0.1064535 0.0479,0.038234 0.09362,0.079123 0.136943,0.1224731 0.04354,0.043476 0.0846,0.089369 0.12299,0.1374593 0.03826,0.047924 0.0738,0.097958 0.106453,0.1498617 0.03262,0.052037 0.0623,0.1058658 0.08888,0.1612304 0.02659,0.055312 0.05005,0.112074 0.07028,0.1700155 0.02035,0.057907 0.03743,0.116912 0.05116,0.1767334 0.01355,0.059843 0.02373,0.1204006 0.03049,0.1813842 0.0069,0.060909 0.01032,0.1221563 0.01033,0.1834513 v 9.6645251 c -6.5e-5,0.172137 0.02697,0.343214 0.0801,0.506946 0.05321,0.16373 0.131856,0.318066 0.233061,0.457336 0.101262,0.139425 0.223861,0.262024 0.363285,0.363286 0.139304,0.101022 0.293638,0.179497 0.457337,0.232544 0.163538,0.05326 0.334437,0.08046 0.506429,0.08061 h 6.783048 1.640727 c -0.172165,-1.02e-4 -0.343242,-0.02731 -0.506946,-0.08061 -0.163699,-0.05305 -0.318032,-0.131521 -0.457336,-0.232544 -0.139241,-0.101304 -0.261663,-0.223901 -0.362769,-0.363286 -0.101204,-0.13927 -0.179854,-0.293605 -0.23306,-0.457336 -0.05331,-0.163704 -0.08051,-0.334781 -0.08062,-0.506946 V 4.0214603 c -1.4e-5,-0.061295 -0.0035,-0.1225423 -0.01033,-0.1834512 -0.0068,-0.060984 -0.01694,-0.1215411 -0.03049,-0.1813843 -0.01373,-0.059821 -0.03081,-0.1188262 -0.05116,-0.1767334 -0.02023,-0.057942 -0.04369,-0.1147033 -0.07028,-0.1700155 -0.02659,-0.055365 -0.05626,-0.1091937 -0.08888,-0.1612304 -0.03266,-0.051904 -0.0682,-0.1019372 -0.106454,-0.1498618 -0.03822,-0.048076 -0.07911,-0.093969 -0.122473,-0.1374591 -0.04349,-0.043365 -0.08938,-0.084255 -0.137459,-0.1224732 -0.04792,-0.038258 -0.09796,-0.073798 -0.149862,-0.1064536 -0.05204,-0.032623 -0.105865,-0.062297 -0.16123,-0.088883 -0.05514,-0.026571 -0.111733,-0.050034 -0.169499,-0.07028 -0.05791,-0.020346 -0.116912,-0.037426 -0.176733,-0.05116 -0.05984,-0.013547 -0.120401,-0.023726 -0.181384,-0.030489 -0.06108,-0.00689 -0.122501,-0.01034 -0.183969,-0.010335 h -6.783052 z"
       style="fill:url(#linearGradient1);stroke:#ffffff;stroke-width:0;stroke-linecap:round;stroke-miterlimit:100"
       id="path16-5" />
    <path
       style="fill:#000000;fill-opacity:1;stroke:#ffffff;stroke-width:0;stroke-linecap:round;stroke-miterlimit:100;stroke-dasharray:none"
       id="path23-8"
       d="m 32.684949,5.9460756 c 0.01169,-0.00977 0.02323,-0.019738 0.03508,-0.029316 0.04675,-0.037779 0.200754,-0.1322146 0.149489,-0.1008348 -0.103961,0.063637 -0.217966,0.1130419 -0.312289,0.1902489 -0.02649,0.021688 0.06707,-0.02001 0.10122,-0.017478 0.02981,0.00222 0.05604,0.020812 0.08407,0.031218 0.07648,0.045643 0.0969,0.1579793 0.193233,0.1731634 0.06636,0.010459 0.130316,-0.028481 0.183515,-0.058851 0.17244,-0.098445 0.34315,-0.1998906 0.514726,-0.2998359 -0.574727,0.3356758 -0.403846,0.1788128 -0.190608,0.2299147 0.05717,0.0137 0.111109,0.039273 0.168437,0.0523 0.03529,0.00802 0.07158,0.010644 0.107368,0.015968 0.220864,0.015925 0.401618,-0.076858 0.624962,-0.054664 0.242122,0.037228 0.486903,0.054315 0.731036,0.072786 0.08139,0.00405 0.151148,0.035751 0.222557,0.070884 0.02024,0.00996 0.0388,0.024569 0.06073,0.029891 0.08667,0.021042 0.147519,0.00515 0.236169,-0.00465 0.116817,-0.014383 0.235277,-0.027153 0.349889,0.00833 0.07301,0.022603 0.138462,0.06924 0.204264,0.1067168 0.03405,-0.0023 0.06927,0.00225 0.102138,-0.00691 0.04512,-0.012573 0.08625,-0.036674 0.128299,-0.057305 0.121814,-0.059766 0.236133,-0.1401982 0.37015,-0.1719061 0.02902,-0.00687 0.05928,-0.00658 0.08892,-0.00987 0.02461,0.00309 0.04973,0.00337 0.07382,0.00928 0.06347,0.015579 0.112137,0.060577 0.176877,0.074655 0.07995,0.017386 0.09722,0.00575 0.182786,-0.00708 0.144318,-0.043844 0.28062,-0.108807 0.420467,-0.1643391 0.07565,-0.030039 0.122504,-0.051883 0.201987,-0.059249 0.02311,-0.00214 0.0464,0.00169 0.06959,0.00254 0.107331,0.032433 0.199665,0.093356 0.311339,0.1130298 0.06391,0.00529 0.03215,0.00362 0.09528,0.00509 0,0 0.417703,-0.3034189 0.417703,-0.3034189 v 0 c -0.06122,0.00135 -0.03052,0.00116 -0.09209,5.292e-4 -0.03084,-0.00225 -0.06495,-0.00307 -0.09492,-0.011994 -0.07864,-0.023416 -0.144173,-0.078572 -0.224073,-0.098911 -0.02714,-0.00281 -0.05414,-0.0092 -0.08141,-0.00842 -0.09527,0.00273 -0.129105,0.021759 -0.219837,0.058203 -0.134895,0.05418 -0.266473,0.1167453 -0.40393,0.1645565 -0.07508,0.017891 -0.145001,0.036911 -0.220433,0.00715 -0.09698,-0.038254 -0.01797,-0.029816 -0.124458,-0.063568 -0.02733,-0.00866 -0.05625,-0.011123 -0.08437,-0.016685 -0.03375,0.00169 -0.068,-8.996e-4 -0.101261,0.00511 -0.207822,0.037561 -0.37007,0.1898118 -0.565365,0.2598105 -0.0735,-0.035933 -0.14327,-0.084564 -0.22094,-0.1112925 -0.119505,-0.041124 -0.240877,-0.033993 -0.364462,-0.018965 -0.02549,0.00329 -0.167039,0.025379 -0.206215,0.018441 -0.02226,-0.00394 -0.04099,-0.019074 -0.06134,-0.028915 -0.07865,-0.038031 -0.153548,-0.078071 -0.243713,-0.080585 -0.24173,-0.011475 -0.484468,-0.025741 -0.721834,-0.075944 -0.08154,-0.010837 -0.09974,-0.017738 -0.186111,-0.00874 -0.148928,0.015512 -0.291802,0.077982 -0.443629,0.067603 -0.03275,-0.00362 -0.066,-0.0041 -0.09824,-0.010856 -0.08772,-0.018367 -0.168947,-0.064499 -0.257557,-0.080812 -0.239244,-0.044046 -0.340947,0.1253638 -0.605532,0.2628085 0.114137,-0.065309 0.2271,-0.1327137 0.342411,-0.1959271 0.149477,-0.081944 -0.130048,0.084932 -0.150745,0.088997 -0.07014,0.013777 -0.08061,-0.038655 -0.119867,-0.082937 -0.02511,-0.028325 -0.05224,-0.054794 -0.07836,-0.082191 -0.03371,-0.017333 -0.06401,-0.044314 -0.101132,-0.051999 -0.03756,-0.00778 -0.08008,-0.00894 -0.114836,0.00729 -0.248204,0.1159222 -0.526283,0.2620666 -0.742049,0.4480595 z" />
    <path
       style="fill:#000000;fill-opacity:1;stroke:#ffffff;stroke-width:0;stroke-linecap:round;stroke-miterlimit:100;stroke-dasharray:none"
       id="path24-2"
       d="m 32.829842,7.77013 c -0.122578,0.072816 -0.251721,0.1355733 -0.367735,0.218449 -0.03762,0.026871 0.08607,-0.033875 0.129906,-0.048554 0.123977,-0.041514 0.267311,-0.092007 0.400713,-0.068985 0.03109,0.00537 0.05937,0.021336 0.08906,0.032003 0.07422,0.043996 0.112712,0.1173459 0.200469,0.1397066 0.09461,0.024106 0.200001,-0.00345 0.29308,-0.019825 0.194459,-0.035656 0.322552,0.1000722 0.477346,0.18761 0.03491,0.00621 0.06927,0.019669 0.104712,0.018635 0.101123,-0.00296 0.257586,-0.057577 0.346015,-0.085492 0.04717,-0.014891 0.334296,-0.1107321 0.385298,-0.1235193 0.0545,-0.013666 0.110631,-0.019759 0.165947,-0.029638 0.157715,-0.030797 0.296721,0.039713 0.445749,0.068525 0.09393,0.018158 0.108296,0.00933 0.207735,6.351e-4 0.259422,-0.060084 0.49978,-0.199706 0.76838,-0.2228914 0.03157,-0.00273 0.06336,6.879e-4 0.09504,0.00103 0.07509,0.00728 0.147881,0.034351 0.224266,0.023313 0.07885,-0.011396 0.172792,-0.054849 0.252906,-0.076486 0.147189,-0.035874 0.251404,0.066128 0.380549,0.1086898 0.02717,0.00896 0.05578,0.012782 0.08367,0.019172 0.154879,0.023691 0.294342,-0.063546 0.446412,-0.068047 0.0773,0.013396 0.131147,0.076252 0.183679,0.1295897 0.041,0.041496 0.09186,0.063402 0.14622,0.080975 0,0 0.427134,-0.2932546 0.427134,-0.2932546 v 0 c -0.04844,-0.010562 -0.09439,-0.02377 -0.131985,-0.058247 -0.06259,-0.061375 -0.121886,-0.131938 -0.207665,-0.1605926 -0.157556,-0.011782 -0.291848,0.081084 -0.448615,0.079316 -0.02538,-0.0034 -0.05143,-0.00346 -0.07614,-0.01021 -0.137554,-0.037589 -0.248133,-0.1583045 -0.402637,-0.1324044 -0.03056,0.00572 -0.0618,0.00857 -0.09168,0.017166 -0.09956,0.028632 -0.05745,0.033539 -0.152445,0.061224 -0.07774,0.022656 -0.15005,-0.00167 -0.22745,-0.01378 -0.03536,-0.00135 -0.07077,-0.00633 -0.106074,-0.00404 -0.267355,0.017378 -0.508108,0.1561822 -0.76344,0.2218414 -0.08034,0.011293 -0.113665,0.022265 -0.192503,0.011181 -0.159472,-0.022423 -0.30985,-0.1031279 -0.476836,-0.072 -0.05854,0.00966 -0.117955,0.014996 -0.175615,0.02897 -0.05403,0.013094 -0.332597,0.1071917 -0.384307,0.1234281 -0.0346,0.010864 -0.255032,0.079084 -0.311994,0.085707 -0.03009,0.0035 -0.06046,-0.00397 -0.0907,-0.00596 -0.165596,-0.082572 -0.297781,-0.2372961 -0.500314,-0.2132563 -0.08508,0.017558 -0.184864,0.048269 -0.272861,0.039886 -0.09298,-0.00886 -0.129164,-0.093281 -0.205694,-0.1360017 -0.03408,-0.014126 -0.06624,-0.034331 -0.102241,-0.042379 -0.139227,-0.031123 -0.282451,0.018891 -0.414503,0.056253 -0.0406,0.011488 -0.08364,0.017116 -0.121354,0.036053 -0.175179,0.087966 -0.343455,0.1890553 -0.515182,0.283583 z" />
    <path
       style="fill:#000000;fill-opacity:1;stroke:#ffffff;stroke-width:0;stroke-linecap:round;stroke-miterlimit:100;stroke-dasharray:none"
       id="path25-3"
       d="m 32.516711,10.053574 c 0.295564,-0.068856 0.628507,-0.1631691 0.934224,-0.1411009 0.04035,0.00291 0.07998,0.012263 0.119968,0.018396 0.208157,0.09376 0.417852,0.041597 0.630272,-0.00502 0.19712,-0.028492 0.27264,0.094373 0.409084,0.2020939 0.02379,0.0092 0.04625,0.02319 0.07136,0.0277 0.190174,0.03413 0.662603,-0.315195 0.714022,-0.3449763 0.107098,-0.06203 -0.215602,0.1217025 -0.321157,0.1863228 -0.03302,0.020217 0.06891,-0.035327 0.103365,-0.052991 0.112561,-0.048607 0.230924,-0.064035 0.34353,-0.00762 0.178023,0.089184 -0.0559,-0.0066 0.145006,0.070927 0.03122,2.09e-4 0.06299,0.0065 0.09366,6.35e-4 0.03852,-0.0074 0.07629,-0.02101 0.110751,-0.039741 0.181241,-0.098526 0.357578,-0.2058352 0.534907,-0.3112308 0.03757,-0.022331 0.147,-0.094606 0.109665,-0.071879 -0.35201,0.2142743 -0.428868,0.2020783 -0.199941,0.1865103 0.159519,0.018053 0.273715,0.1387258 0.428672,0.1704417 0.09211,0.018852 0.13366,0.011078 0.225095,0.00629 0.167262,-0.025458 0.284561,-0.063642 0.44205,0.013285 0.161567,0.094337 0.255983,0.091256 0.435108,0.067135 0.128548,-0.01961 0.256304,0.0043 0.385207,0.0052 0.131786,-8.99e-4 0.263546,-0.0039 0.395321,-0.0057 0.01679,-1.83e-4 0.03359,-3.7e-4 0.05038,-5.55e-4 0,0 0.416236,-0.303339 0.416236,-0.303339 v 0 c -0.01708,3.174e-4 -0.03416,6.085e-4 -0.05124,9.26e-4 -0.133272,0.00311 -0.26648,0.00863 -0.39978,0.010438 -0.02617,-1.307e-4 -0.110838,1.833e-4 -0.139941,-0.00259 C 38.419084,9.725168 38.337614,9.706681 38.25302,9.724098 38.089449,9.750271 37.988051,9.77525 37.838651,9.681864 37.795251,9.65716 37.761211,9.63373 37.711652,9.62194 37.599331,9.595219 37.480372,9.632447 37.370548,9.65131 37.262119,9.664806 37.151866,9.6771989 37.046576,9.63562 36.934356,9.5912886 36.842358,9.4958738 36.717188,9.4797057 36.393078,9.45992 36.613998,9.451411 36.056366,9.7640179 c -0.03827,0.021452 -0.149813,0.091071 -0.110725,0.07115 0.107358,-0.054713 0.211588,-0.1154118 0.315908,-0.1757173 0.05389,-0.031155 -0.192819,0.1116221 -0.175662,0.063403 -0.02428,-0.00688 -0.04991,-0.010089 -0.07284,-0.020632 -0.100128,-0.046035 -0.04181,-0.050692 -0.153898,-0.086262 -0.09766,-0.030992 -0.199607,-0.016822 -0.293382,0.017809 -0.268983,0.1303507 -0.173965,0.081172 -0.634008,0.3560562 -0.1082,0.064651 0.219293,-0.1243389 0.329277,-0.1859077 0.02922,-0.016359 -0.05592,0.037775 -0.08699,0.050278 -0.02256,0.00908 -0.04737,0.01315 -0.07169,0.013576 -0.02119,3.703e-4 -0.04173,-0.00749 -0.06259,-0.011232 -0.149548,-0.1080136 -0.2292,-0.25159 -0.441213,-0.2333587 -0.137507,0.033021 -0.290971,0.085344 -0.434232,0.074249 -0.05156,-0.00399 -0.142741,-0.036148 -0.189739,-0.051009 -0.04389,-0.00611 -0.08745,-0.015505 -0.131671,-0.018322 -0.311143,-0.019828 -0.6173,0.075582 -0.923426,0.1140579 z" />
    <path
       style="fill:#000000;fill-opacity:1;stroke:#ffffff;stroke-width:0;stroke-linecap:round;stroke-miterlimit:100;stroke-dasharray:none"
       id="path26-6"
       d="m 32.377659,12.244044 c 0.187468,-0.104396 0.39251,-0.166566 0.605234,-0.188052 0.172108,-0.0014 0.262228,0.125281 0.385933,0.219632 0.02503,0.01909 0.05228,0.03508 0.07842,0.05262 0.07678,0.03254 0.105735,0.0533 0.192414,0.05467 0.166361,0.0026 0.331725,-0.08223 0.483488,-0.140134 0.155572,-0.06473 0.318459,-0.06646 0.483479,-0.05787 0.290711,0.02102 0.572849,0.0958 0.855353,0.162691 0.216418,0.06671 0.424553,-0.0267 0.635331,-0.06726 0.03778,-0.0073 0.07621,-0.01061 0.114321,-0.01592 0.118771,-0.02932 0.220696,0.04838 0.333303,0.05844 0.02665,0.0024 0.0535,-5.56e-4 0.08025,-8.2e-4 0.186235,-0.03045 0.322044,-0.134492 0.515224,-0.124315 0.152954,0.03647 0.243146,0.06464 0.402898,0.03546 0.112378,-0.0219 0.221579,-0.09398 0.33869,-0.07554 0.09597,0.02627 0.183042,-0.01986 0.271857,-0.04998 0.113058,-0.02678 0.228565,0.0095 0.34145,0.02342 0,0 0.417088,-0.295341 0.417088,-0.295341 v 0 c -0.116902,-0.01423 -0.232489,-0.04619 -0.350459,-0.04398 -0.08422,0.02442 -0.163739,0.07452 -0.252281,0.07309 -0.125294,-0.04865 -0.24236,0.02634 -0.363096,0.061 -0.155225,0.04481 -0.240412,0.01801 -0.391339,-0.02363 -0.06616,-0.0086 -0.09333,-0.01698 -0.161926,-0.0044 -0.124699,0.02287 -0.233968,0.09975 -0.358823,0.122949 -0.02341,0.0028 -0.04666,0.0084 -0.07025,0.0086 -0.112257,5.03e-4 -0.234964,-0.09699 -0.354952,-0.06167 -0.152805,0.01823 -0.09652,0.0067 -0.253498,0.04621 -0.120979,0.03041 -0.250287,0.07635 -0.377244,0.07115 -0.03743,-0.0015 -0.07384,-0.01277 -0.110752,-0.01915 -0.283994,-0.05664 -0.564538,-0.130087 -0.851002,-0.173636 -0.171098,-0.02046 -0.341143,-0.01953 -0.504148,0.04498 -0.05223,0.0205 -0.186864,0.07363 -0.237889,0.09248 -0.13598,0.05025 -0.264757,0.09321 -0.40353,0.02646 -0.02491,-0.01573 -0.05098,-0.02977 -0.07474,-0.04719 -0.135072,-0.09905 -0.229768,-0.242154 -0.415009,-0.247535 -0.0412,0.0026 -0.08274,0.0019 -0.12361,0.0078 -0.162706,0.02335 -0.323417,0.08013 -0.472103,0.148386 z" />
  </g>
</svg>
